<svg width="220" height="30" viewBox="0 0 220 30" xmlns="http://www.w3.org/2000/svg"><title>Icons/Testimonials/Mashable 2</title><g fill="none" fill-rule="evenodd"><path d="M0 0h220v30H0z"/><path d="M53.481 28.99V11.946l-6.724 17.042h-3.044l-6.767-17.042v17.042h-6.889V3.217h9.571l5.607 14.22 5.563-14.22h9.571v25.772zm20.735 0v-1.855c-1.2 1.39-3.526 2.32-6.007 2.32-2.962 0-6.647-1.972-6.647-6.146 0-4.519 3.685-6.03 6.647-6.03 2.563 0 4.846.814 6.007 2.204v-1.855c0-1.623-1.44-2.743-3.926-2.743-1.922 0-3.844.735-5.404 2.008l-2.284-4.132c2.486-2.05 5.81-2.896 8.772-2.896 4.643 0 9.007 1.66 9.007 7.456V28.99h-6.165zm0-4.794v-1.659c-.64-.888-2.081-1.316-3.444-1.316-1.6 0-3.083.698-3.083 2.167 0 1.469 1.484 2.161 3.083 2.161 1.363 0 2.803-.46 3.444-1.353zm6.603 2.359l2.563-4.248c1.44 1.236 4.522 2.51 6.805 2.51 1.84 0 2.601-.502 2.601-1.316 0-2.315-11.246.08-11.246-7.494 0-3.286 2.962-6.145 8.284-6.145 3.285 0 6.007 1.004 8.087 2.473l-2.36 4.212c-1.16-1.084-3.362-2.046-5.683-2.046-1.446 0-2.404.54-2.404 1.274 0 2.045 11.208-.08 11.208 7.573 0 3.556-3.241 6.103-8.766 6.103-3.482 0-7.047-1.12-9.089-2.896m31.747 2.435V18.13c0-2.278-1.243-3.012-3.203-3.012-1.802 0-3 .967-3.723 1.817V28.99h-6.166V3.217h6.166v9.39c1.16-1.315 3.444-2.742 6.685-2.742 4.402 0 6.406 2.394 6.406 5.834v13.29h-6.165zm19.696 0v-1.855c-1.199 1.39-3.526 2.32-6.006 2.32-2.963 0-6.648-1.972-6.648-6.146 0-4.519 3.685-6.03 6.648-6.03 2.562 0 4.845.814 6.006 2.204v-1.855c0-1.623-1.44-2.743-3.926-2.743-1.922 0-3.843.735-5.404 2.008l-2.283-4.132c2.486-2.05 5.81-2.896 8.771-2.896 4.644 0 9.007 1.66 9.007 7.456V28.99h-6.165zm0-4.794v-1.659c-.64-.888-2.08-1.316-3.444-1.316-1.599 0-3.083.698-3.083 2.167 0 1.469 1.484 2.161 3.083 2.161 1.363 0 2.804-.46 3.444-1.353zm8.284 4.794V3.216h6.166v9.311c1.522-1.855 3.603-2.663 5.727-2.663 4.846 0 8.525 3.667 8.525 9.776 0 6.336-3.761 9.813-8.525 9.813-2.163 0-4.123-.85-5.727-2.626v2.161h-6.166zm9.85-4.794c2.443 0 4.282-1.738 4.282-4.555 0-2.785-1.84-4.523-4.281-4.523-1.32 0-2.924.697-3.685 1.701v5.718c.76 1.004 2.365 1.66 3.685 1.66zm11.29-20.979h6.166V28.99h-6.166zm7.044 16.421c0-5.411 4.205-9.776 10.25-9.776 5.727 0 9.888 4.058 9.888 10.395v1.352h-13.77c.438 1.66 2.042 3.055 4.84 3.055 1.363 0 3.608-.581 4.725-1.586l2.683 3.9c-1.922 1.665-5.125 2.474-8.087 2.474-5.963 0-10.53-3.747-10.53-9.814m10.25-4.983c-2.682 0-3.723 1.543-3.963 2.896h7.966c-.158-1.316-1.16-2.896-4.002-2.896" fill="#00AEEF" fill-rule="nonzero"/></g></svg>