<svg width="220" height="30" viewBox="0 0 220 30" xmlns="http://www.w3.org/2000/svg"><title>Icons/Testimonials/Smart Company 2</title><g fill="none" fill-rule="evenodd"><path d="M0 0h220v30H0z"/><path d="M2.584 14.567c.04.476.191.921.454 1.336a3.86 3.86 0 0 0 1.028 1.079c.424.303.92.541 1.49.714.57.172 1.183.258 1.839.258.252 0 .507-.03.764-.091s.487-.155.688-.281c.202-.127.366-.286.492-.479.126-.192.19-.425.19-.698 0-.294-.079-.545-.235-.752-.157-.208-.386-.4-.689-.577a7.739 7.739 0 0 0-1.127-.524 140.27 140.27 0 0 1-1.55-.608c-.646-.253-1.297-.514-1.952-.782a8.65 8.65 0 0 1-1.786-.98 4.746 4.746 0 0 1-1.308-1.42C.544 10.2.375 9.499.375 8.658c0-.597.113-1.194.34-1.792a4.56 4.56 0 0 1 1.052-1.61c.474-.476 1.079-.863 1.815-1.162.737-.298 1.614-.448 2.633-.448a7.755 7.755 0 0 1 1.906.25c.333.087.656.196.969.327.312.132.595.289.847.471h.03l-.045-.88h2.36v5.498h-1.997a4.34 4.34 0 0 0-.507-1.451 3.824 3.824 0 0 0-.93-1.094 4.162 4.162 0 0 0-1.279-.69 4.811 4.811 0 0 0-1.55-.244c-.263 0-.518.03-.765.092a1.99 1.99 0 0 0-.658.288 1.42 1.42 0 0 0-.454.509c-.11.207-.166.463-.166.767 0 .364.095.666.287.904.192.238.459.443.802.615s.744.331 1.203.478c.459.147.955.312 1.49.494a19.92 19.92 0 0 1 2.179.896c.665.324 1.24.701 1.725 1.131.484.43.864.922 1.142 1.474.277.552.416 1.192.416 1.921 0 .81-.159 1.516-.477 2.119a4.433 4.433 0 0 1-1.263 1.496 5.55 5.55 0 0 1-1.8.889 7.46 7.46 0 0 1-2.103.296c-.444 0-.888-.03-1.332-.091a10.73 10.73 0 0 1-1.27-.251 7.161 7.161 0 0 1-1.113-.387 4.534 4.534 0 0 1-.87-.502h-.03l.106.942H.708l-.121-5.346h1.997zm28.398.136a38.616 38.616 0 0 1-.121 2.719l2.013-.09V19.7H24.9v-2.02c.394 0 .704-.065.93-.197.228-.132.397-.319.508-.562.11-.243.181-.534.211-.873.03-.34.046-.717.046-1.132l-.015-4.86c0-.679-.056-1.246-.167-1.701-.11-.456-.265-.82-.461-1.094a1.614 1.614 0 0 0-.711-.577 2.52 2.52 0 0 0-.946-.167 3.04 3.04 0 0 0-1.407.342 5.32 5.32 0 0 0-1.165.797v7.047a38.616 38.616 0 0 1-.121 2.719l1.86-.09V19.7H15.49v-2.02c.434 0 .775-.065 1.022-.197s.43-.319.552-.562a2.43 2.43 0 0 0 .227-.873c.03-.34.045-.717.045-1.132v-5.24c0-.375.008-.792.023-1.253.015-.46.048-.924.098-1.39l-2.178.091V4.77c.716 0 1.349-.03 1.898-.09.55-.062 1.02-.138 1.407-.229.389-.09.701-.19.939-.296.237-.106.41-.21.522-.311h1.528l.136 1.534h.045a9.535 9.535 0 0 1 2.11-1.223 7.115 7.115 0 0 1 1.18-.372 5.58 5.58 0 0 1 1.219-.137c.948 0 1.732.167 2.353.501.62.335 1.117.851 1.49 1.55a9.693 9.693 0 0 1 1.18-.85c.414-.254.84-.47 1.278-.646a8.206 8.206 0 0 1 1.317-.41 5.963 5.963 0 0 1 1.278-.145c.827 0 1.559.114 2.194.342a3.603 3.603 0 0 1 1.589 1.109c.423.511.744 1.177.96 1.997.217.82.326 1.828.326 3.023v4.586a38.616 38.616 0 0 1-.121 2.719l2.012-.09V19.7h-7.822v-2.02c.353 0 .633-.065.84-.197.206-.132.363-.319.469-.562a2.7 2.7 0 0 0 .196-.873c.025-.34.038-.717.038-1.132l-.015-4.77c0-.698-.063-1.28-.19-1.746-.125-.466-.297-.835-.514-1.109a1.756 1.756 0 0 0-.786-.577 2.981 2.981 0 0 0-1.022-.167c-.524.01-.998.112-1.422.304-.423.192-.812.43-1.165.714.08.425.144.88.19 1.367.045.486.067 1.017.067 1.595v4.176zm21.288-2.156a9.156 9.156 0 0 0-1.65.319 5.02 5.02 0 0 0-1.338.6 2.937 2.937 0 0 0-.893.888c-.217.344-.325.74-.325 1.185a1.8 1.8 0 0 0 .166.744c.101.203.23.37.386.501.157.132.338.228.545.289.207.06.421.091.643.091a3.02 3.02 0 0 0 1.346-.304 3.667 3.667 0 0 0 1.105-.835l.015-3.478zm-7.943-4.8c0-.607.169-1.164.507-1.67.338-.507.802-.94 1.392-1.3.59-.359 1.283-.637 2.08-.835.797-.197 1.65-.296 2.557-.296.908 0 1.717.117 2.428.35a4.493 4.493 0 0 1 1.8 1.078c.49.486.863 1.104 1.12 1.853.258.75.386 1.64.386 2.673 0 .527-.002.99-.007 1.39-.005.4-.008.785-.008 1.154 0 .37-.002.757-.007 1.162-.006.405-.008.87-.008 1.397 0 .152-.003.335-.008.547l-.015.684a19.93 19.93 0 0 1-.03.752c-.015.258-.033.503-.053.736l1.997-.09V19.7h-5.855a12.722 12.722 0 0 1-.121-1.427h-.03c-.706.709-1.443 1.207-2.21 1.496a6.688 6.688 0 0 1-2.375.433c-.665 0-1.26-.104-1.785-.312a3.67 3.67 0 0 1-1.324-.873 3.89 3.89 0 0 1-.824-1.314 4.578 4.578 0 0 1-.288-1.648c0-.658.116-1.25.348-1.777.232-.526.552-.997.96-1.412.41-.416.89-.775 1.446-1.079a9.997 9.997 0 0 1 1.793-.76c.64-.202 1.308-.359 2.004-.47a18.233 18.233 0 0 1 2.088-.213V8.72c0-.415-.035-.797-.106-1.147a2.441 2.441 0 0 0-.363-.903 1.76 1.76 0 0 0-.68-.593c-.283-.141-.636-.207-1.06-.197-.423.02-.817.106-1.18.258a2.758 2.758 0 0 0-.938.638c.161.172.265.37.31.592.046.223.068.41.068.562 0 .223-.04.448-.12.676a1.808 1.808 0 0 1-.379.623 2.018 2.018 0 0 1-.65.463 2.216 2.216 0 0 1-.939.183 2.02 2.02 0 0 1-.817-.19 1.838 1.838 0 0 1-.975-1.117 2.54 2.54 0 0 1-.13-.82zm26.628-4.1a3.5 3.5 0 0 1 1.037.151c.328.101.615.256.862.463.247.208.444.474.59.798.147.324.22.714.22 1.17 0 .242-.04.493-.121.751a2.119 2.119 0 0 1-.379.706 1.963 1.963 0 0 1-.673.524c-.277.137-.613.205-1.006.205a2.64 2.64 0 0 1-.65-.083 1.748 1.748 0 0 1-.613-.289 1.8 1.8 0 0 1-.485-.554c-.136-.233-.219-.532-.25-.896-.312 0-.627.104-.945.311a4.541 4.541 0 0 0-.892.775c-.278.309-.522.64-.734.995a4.717 4.717 0 0 0-.454.957v5.072a38.615 38.615 0 0 1-.121 2.719l2.012-.09V19.7h-8.125v-2.02c.434 0 .775-.065 1.022-.197s.43-.319.552-.562a2.45 2.45 0 0 0 .227-.873c.03-.34.045-.717.045-1.132v-5.24c0-.375.008-.792.023-1.253.015-.46.048-.924.098-1.39l-2.178.091V4.77c.716 0 1.349-.03 1.898-.09.55-.062 1.02-.138 1.407-.229.389-.09.701-.19.938-.296a2 2 0 0 0 .522-.311h1.529l.136 2.673h.045c.202-.274.446-.577.734-.911.287-.335.62-.646.998-.935a5.982 5.982 0 0 1 1.249-.729 3.677 3.677 0 0 1 1.482-.296zm3.42.5a3.157 3.157 0 0 0 1.498-.402c.464-.258.88-.58 1.248-.964.368-.385.68-.805.938-1.261.257-.456.446-.881.567-1.276h2.285l-.015 3.903h3.949v2.4l-3.95.076c-.01 1.468-.017 2.686-.022 3.653-.005.967-.01 1.742-.015 2.324-.005.582-.008.997-.008 1.245v.433c0 .365.023.727.068 1.086.046.36.137.684.273.972.136.289.328.522.575.699.247.177.567.266.96.266a2.522 2.522 0 0 0 1.158-.312c.247-.126.512-.314.794-.562.283-.248.57-.58.863-.994l1.497 1.397c-.564.83-1.13 1.473-1.694 1.929-.565.455-1.105.79-1.619 1.002-.514.213-.983.34-1.407.38-.424.04-.777.06-1.06.06-.342 0-.698-.027-1.066-.083a4.509 4.509 0 0 1-1.09-.311 3.77 3.77 0 0 1-1.013-.646 3.99 3.99 0 0 1-.847-1.086c-.247-.445-.441-.984-.583-1.617-.14-.633-.211-1.38-.211-2.24l.045-7.504-2.118.03V4.148z" fill="#0AB6E7"/><path d="M97.448 8.218c0-.182.03-.403.09-.66a2.18 2.18 0 0 1 .288-.692 1.537 1.537 0 0 0-.431-.501 2.573 2.573 0 0 0-1.15-.486 3.466 3.466 0 0 0-.522-.046c-.525 0-1.004.12-1.437.357-.434.238-.81.593-1.128 1.064-.317.47-.564 1.05-.74 1.739-.177.688-.266 1.483-.266 2.384 0 .79.073 1.55.22 2.278a6.07 6.07 0 0 0 .718 1.93 3.876 3.876 0 0 0 1.317 1.336c.544.334 1.215.501 2.012.501.414 0 .83-.058 1.248-.174a5.76 5.76 0 0 0 1.203-.487 6.498 6.498 0 0 0 2.027-1.723l1.423 1.382c-.565.78-1.145 1.415-1.74 1.906a8.29 8.29 0 0 1-1.8 1.154 7.191 7.191 0 0 1-1.801.57c-.595.101-1.175.152-1.74.152a8.18 8.18 0 0 1-2.958-.532 6.993 6.993 0 0 1-2.42-1.55c-.692-.678-1.239-1.508-1.642-2.49-.404-.982-.606-2.106-.606-3.372 0-1.164.197-2.27.59-3.319a8.472 8.472 0 0 1 1.65-2.741 7.876 7.876 0 0 1 2.541-1.86c.989-.461 2.083-.692 3.284-.692.978 0 1.84.122 2.587.365.746.243 1.369.562 1.868.957.5.395.875.848 1.127 1.359.253.511.379 1.04.379 1.587 0 .314-.048.613-.144.896a2.166 2.166 0 0 1-.424.745 1.97 1.97 0 0 1-.688.5c-.272.122-.58.183-.923.183-.383 0-.701-.066-.953-.197a1.958 1.958 0 0 1-.62-.494 1.763 1.763 0 0 1-.34-.653 2.547 2.547 0 0 1-.1-.676zm39.564 6.485a38.61 38.61 0 0 1-.121 2.719l2.013-.09V19.7h-7.974v-2.02c.393 0 .704-.065.93-.197a1.21 1.21 0 0 0 .507-.562c.111-.243.182-.534.212-.873.03-.34.046-.717.046-1.132l-.015-4.86c0-.679-.056-1.246-.167-1.701-.11-.456-.265-.82-.461-1.094a1.614 1.614 0 0 0-.711-.577 2.52 2.52 0 0 0-.946-.167 3.04 3.04 0 0 0-1.407.342 5.32 5.32 0 0 0-1.165.797v7.047a38.61 38.61 0 0 1-.121 2.719l1.86-.09V19.7h-7.973v-2.02c.434 0 .774-.065 1.022-.197a1.27 1.27 0 0 0 .552-.562 2.45 2.45 0 0 0 .227-.873c.03-.34.045-.717.045-1.132v-5.24c0-.375.008-.792.023-1.253.015-.46.048-.924.098-1.39l-2.178.091V4.77c.716 0 1.349-.03 1.898-.09.55-.062 1.02-.138 1.407-.229.389-.09.701-.19.938-.296.237-.106.411-.21.522-.311h1.529l.136 1.534h.045a9.535 9.535 0 0 1 2.11-1.223 7.115 7.115 0 0 1 1.18-.372 5.58 5.58 0 0 1 1.219-.137c.948 0 1.732.167 2.352.501.62.335 1.118.851 1.49 1.55a9.693 9.693 0 0 1 1.18-.85c.414-.254.84-.47 1.28-.646a8.206 8.206 0 0 1 1.316-.41 5.963 5.963 0 0 1 1.278-.145c.827 0 1.559.114 2.194.342a3.603 3.603 0 0 1 1.589 1.109c.423.511.743 1.177.96 1.997.217.82.326 1.828.326 3.023v4.586a38.61 38.61 0 0 1-.121 2.719l2.012-.09V19.7h-7.822v-2.02c.353 0 .633-.065.84-.197.206-.132.363-.319.468-.562.106-.243.172-.534.197-.873.025-.34.038-.717.038-1.132l-.015-4.77c0-.698-.063-1.28-.19-1.746-.125-.466-.297-.835-.514-1.109a1.756 1.756 0 0 0-.786-.577 2.981 2.981 0 0 0-1.022-.167c-.524.01-.998.112-1.422.304-.424.192-.812.43-1.165.714.08.425.144.88.19 1.367.045.486.067 1.017.067 1.595v4.176zm21.318-8.247a3.17 3.17 0 0 0-1.43.395 3.095 3.095 0 0 0-1.066.957V17.3c.1.08.234.157.4.228.167.07.349.131.545.182.197.05.406.09.628.121.222.03.444.046.666.046.716 0 1.309-.165 1.778-.494a3.518 3.518 0 0 0 1.12-1.314 6.291 6.291 0 0 0 .582-1.883c.11-.709.166-1.438.166-2.187 0-.73-.065-1.428-.196-2.096a6.346 6.346 0 0 0-.606-1.77 3.46 3.46 0 0 0-1.051-1.222c-.429-.304-.94-.456-1.536-.456zm-6.884 3.22c0-.375.008-.792.023-1.253.015-.46.048-.924.098-1.39l-2.178.091V4.77c.716 0 1.346-.03 1.89-.09a12.363 12.363 0 0 0 1.4-.229c.389-.09.701-.19.938-.296.237-.106.411-.21.522-.311h1.528l.152 1.488h.045c.706-.628 1.412-1.066 2.118-1.314s1.382-.372 2.028-.372c.928 0 1.775.185 2.541.555a5.67 5.67 0 0 1 1.975 1.58c.55.683.976 1.51 1.278 2.483.303.972.454 2.06.454 3.265 0 1.256-.184 2.412-.552 3.47-.368 1.059-.888 1.973-1.558 2.742a7.145 7.145 0 0 1-2.421 1.808c-.943.435-1.99.653-3.14.653a5.954 5.954 0 0 1-1.52-.175c-.439-.116-.85-.246-1.233-.387v2.992a38.619 38.619 0 0 1-.121 2.719l2.012-.092v2.37H149.6v-2.02c.434 0 .774-.066 1.022-.198.247-.131.43-.319.552-.562a2.45 2.45 0 0 0 .227-.873c.03-.34.045-.716.045-1.132V9.676zm25.358 2.87a9.156 9.156 0 0 0-1.65.32 5.02 5.02 0 0 0-1.338.6 2.937 2.937 0 0 0-.893.888c-.217.344-.325.74-.325 1.185a1.8 1.8 0 0 0 .166.744 1.48 1.48 0 0 0 .931.79c.206.06.42.091.643.091a3.02 3.02 0 0 0 1.346-.304 3.667 3.667 0 0 0 1.105-.835l.015-3.478zm-7.943-4.799c0-.607.169-1.164.506-1.67.338-.507.802-.94 1.392-1.3.59-.359 1.284-.637 2.08-.835.798-.197 1.65-.296 2.558-.296.908 0 1.717.117 2.428.35a4.493 4.493 0 0 1 1.8 1.078c.49.486.863 1.104 1.12 1.853.257.75.386 1.64.386 2.673 0 .527-.003.99-.008 1.39-.005.4-.007.785-.007 1.154 0 .37-.003.757-.008 1.162-.005.405-.007.87-.007 1.397 0 .152-.003.335-.008.547l-.015.684a19.93 19.93 0 0 1-.03.752c-.015.258-.033.503-.053.736l1.997-.09V19.7h-5.855a12.722 12.722 0 0 1-.121-1.427h-.03c-.707.709-1.443 1.207-2.21 1.496a6.688 6.688 0 0 1-2.375.433c-.666 0-1.26-.104-1.785-.312a3.67 3.67 0 0 1-1.324-.873 3.89 3.89 0 0 1-.825-1.314 4.578 4.578 0 0 1-.287-1.648c0-.658.116-1.25.348-1.777.232-.526.552-.997.96-1.412.409-.416.89-.775 1.445-1.079a9.997 9.997 0 0 1 1.793-.76c.64-.202 1.309-.359 2.005-.47a18.233 18.233 0 0 1 2.088-.213V8.72c0-.415-.035-.797-.106-1.147a2.458 2.458 0 0 0-.363-.903 1.76 1.76 0 0 0-.68-.593c-.283-.141-.636-.207-1.06-.197a3.45 3.45 0 0 0-1.18.258 2.758 2.758 0 0 0-.938.638c.161.172.265.37.31.592.045.223.068.41.068.562 0 .223-.04.448-.121.676-.08.228-.207.436-.378.623a2.018 2.018 0 0 1-.65.463 2.216 2.216 0 0 1-.939.183 2.02 2.02 0 0 1-.817-.19 1.838 1.838 0 0 1-.976-1.117 2.54 2.54 0 0 1-.128-.82zm31.878 6.956a38.618 38.618 0 0 1-.121 2.719l2.012-.09V19.7h-8.124v-2.02c.433 0 .774-.065 1.021-.197.247-.132.431-.319.552-.562a2.43 2.43 0 0 0 .227-.873c.03-.34.046-.717.046-1.132l-.016-4.435c-.01-1.367-.216-2.37-.62-3.007-.403-.638-1.034-.957-1.891-.957-.535 0-1.052.111-1.55.334a4.93 4.93 0 0 0-1.28.805v7.047a38.628 38.628 0 0 1-.121 2.719l2.013-.09V19.7h-8.125v-2.02c.434 0 .774-.065 1.021-.197.247-.132.432-.319.553-.562.12-.243.196-.534.227-.873.03-.34.045-.717.045-1.132v-5.24c0-.375.007-.792.023-1.253.015-.46.048-.924.098-1.39l-2.179.091V4.77c.716 0 1.35-.03 1.9-.09a12.339 12.339 0 0 0 1.406-.229c.388-.09.701-.19.938-.296.237-.106.411-.21.522-.311h1.528l.136 1.534h.046a7.986 7.986 0 0 1 1.036-.669 9.817 9.817 0 0 1 2.39-.926 4.647 4.647 0 0 1 1.052-.137c.948 0 1.753.134 2.413.403.661.268 1.2.68 1.62 1.238.418.557.723 1.27.915 2.141.191.871.287 1.904.287 3.099v4.176zm11.923.836c.09-.263.201-.608.332-1.033l.447-1.45c.166-.542.348-1.13.544-1.762.197-.633.406-1.289.628-1.967.06-.193.136-.418.227-.676.091-.258.194-.524.31-.798.116-.273.24-.536.371-.79.131-.252.267-.465.409-.637v-.03l-1.77.12V4.148h5.507v1.99c-.646.162-1.178.56-1.597 1.192-.418.633-.789 1.42-1.112 2.362l-3.888 11.103a49.98 49.98 0 0 1-1.24 3.288c-.394.927-.808 1.689-1.241 2.286-.434.598-.913 1.04-1.438 1.33-.524.288-1.134.432-1.83.432a3.33 3.33 0 0 1-1.12-.182 2.687 2.687 0 0 1-.893-.517 2.43 2.43 0 0 1-.597-.805 2.451 2.451 0 0 1-.22-1.048c0-.283.05-.554.152-.812.1-.258.24-.486.416-.684.176-.197.388-.354.635-.47.247-.117.517-.175.81-.175.211 0 .413.043.605.129a1.62 1.62 0 0 1 .855.904c.085.212.128.445.128.698 0 .132-.015.274-.045.426v.03c.212 0 .434-.144.666-.433.232-.288.466-.668.703-1.139.237-.47.464-1.013.681-1.625.217-.613.416-1.248.598-1.906l-4.918-9.858a25.9 25.9 0 0 1-.71-1.503 14.711 14.711 0 0 1-.432-1.117 6.281 6.281 0 0 1-.227-.858 15.326 15.326 0 0 1-.113-.729l-1.422.06V4.148h7.716v1.99c-.484.06-.822.203-1.014.425a1.172 1.172 0 0 0-.287.79c0 .193.03.393.09.6.06.208.137.413.227.615l3.026 6.972h.03z" fill="#0F88C9"/><path d="M110.456 28.595h4.374s.684-1.267 0-1.972c-.683-.704-5.741 0-5.741 0s-1.094.564 0 2.254l1.367-.282z" fill="#C5D96B"/><path d="M117.29 19.297s-1.093 4.509-.546 5.636c.547 1.127-8.749.563-8.749.563l-1.094 1.69v-2.253l.547-1.127 7.656-.564s1.093-3.945 2.187-3.945z" fill="#C5D96B"/><path d="M109.089 22.115h-1.094s.547-1.69-5.468-9.016V9.154s3.828-6.762 8.202-5.635h4.375s4.92 1.69 5.468 5.072c.546 3.38 0 5.071 0 5.071s-5.468 5.072-6.015 7.89h-.547V18.17l3.828-3.38s-4.922-1.128-6.015-5.072c0 0 3.28-2.818 3.28 0 0 2.817-1.64 4.508-1.64 4.508h-3.28s-3.282-.564-2.735-2.818c.547-2.254 2.187-1.127 2.187-1.127s.547.564 0 1.69c-.546 1.128-3.827 2.818-3.827 2.818s2.734 2.818 3.28 4.508c.547 1.691 0 2.818 0 2.818z" stroke="#C5D96B"/><path d="M106.901 14.226l-2.187-.564V9.718s2.734-5.635 7.109-5.072c4.374.564 6.561 3.945 6.561 3.945v5.071h-3.355" stroke="#C5D96B"/></g></svg>