<svg width="100" height="100" viewBox="0 0 100 100" xmlns="http://www.w3.org/2000/svg"><title>testimonials-spotify</title><path d="M18.497 36C11.043 36 5 42.086 5 49.594c0 7.508 6.043 13.593 13.497 13.593s13.496-6.085 13.496-13.593C31.993 42.087 25.951 36 18.496 36zm6.19 19.606a.837.837 0 0 1-1.158.281c-3.169-1.95-7.158-2.391-11.856-1.31a.841.841 0 0 1-1.007-.638.846.846 0 0 1 .632-1.014c5.142-1.184 9.552-.674 13.11 1.516a.85.85 0 0 1 .278 1.165zm1.651-3.701a1.048 1.048 0 0 1-1.447.35c-3.628-2.247-9.158-2.897-13.45-1.585a1.052 1.052 0 0 1-1.313-.707 1.063 1.063 0 0 1 .702-1.321c4.902-1.498 10.995-.773 15.162 1.806.494.307.65.96.346 1.457zm.142-3.855c-4.35-2.602-11.527-2.841-15.68-1.572a1.26 1.26 0 0 1-1.574-.847 1.274 1.274 0 0 1 .841-1.586c4.768-1.458 12.693-1.176 17.701 1.818.601.36.798 1.14.442 1.743a1.256 1.256 0 0 1-1.73.444zm15.24.5c-2.33-.56-2.745-.953-2.745-1.779 0-.78.729-1.305 1.813-1.305 1.051 0 2.092.399 3.185 1.22a.15.15 0 0 0 .114.028.15.15 0 0 0 .102-.063l1.138-1.616a.155.155 0 0 0-.03-.209c-1.3-1.05-2.763-1.561-4.475-1.561-2.516 0-4.274 1.52-4.274 3.697 0 2.333 1.517 3.16 4.137 3.797 2.23.518 2.606.951 2.606 1.726 0 .858-.76 1.392-1.985 1.392-1.36 0-2.471-.462-3.712-1.543a.15.15 0 0 0-.216.016l-1.276 1.529a.155.155 0 0 0 .014.214c1.444 1.299 3.22 1.984 5.138 1.984 2.71 0 4.463-1.492 4.463-3.802.005-1.949-1.154-3.028-3.992-3.724l-.005-.002zm10.13-2.316c-1.174 0-2.138.466-2.934 1.422V46.58a.153.153 0 0 0-.152-.155h-2.087a.153.153 0 0 0-.151.155v11.947c0 .085.067.154.151.154h2.087c.084 0 .152-.07.152-.154v-3.77c.796.897 1.76 1.337 2.935 1.337 2.184 0 4.395-1.693 4.395-4.93.003-3.237-2.208-4.93-4.394-4.93h-.001zm1.969 4.931c0 1.648-1.008 2.798-2.452 2.798-1.426 0-2.503-1.202-2.503-2.798s1.077-2.798 2.503-2.798c1.42 0 2.452 1.176 2.452 2.798zm8.092-4.93c-2.813 0-5.016 2.18-5.016 4.965 0 2.755 2.189 4.913 4.982 4.913 2.822 0 5.032-2.174 5.032-4.948 0-2.765-2.196-4.93-4.998-4.93zm0 7.745c-1.496 0-2.624-1.211-2.624-2.816 0-1.612 1.09-2.781 2.59-2.781 1.505 0 2.64 1.21 2.64 2.816 0 1.612-1.096 2.78-2.606 2.78zm11.003-7.554h-2.297v-2.364a.153.153 0 0 0-.151-.154h-2.088a.154.154 0 0 0-.153.154v2.364h-1.002a.153.153 0 0 0-.152.155v1.806c0 .084.068.154.152.154h1.002v4.674c0 1.888.933 2.846 2.776 2.846.747 0 1.368-.156 1.953-.49a.15.15 0 0 0 .077-.134v-1.72a.153.153 0 0 0-.072-.13.147.147 0 0 0-.148-.007 2.62 2.62 0 0 1-1.225.297c-.67 0-.969-.306-.969-.991v-4.344h2.297c.083 0 .151-.07.151-.154V46.58a.148.148 0 0 0-.15-.154h-.001zm8 .01v-.29c0-.855.326-1.236 1.054-1.236.435 0 .785.087 1.177.218a.153.153 0 0 0 .2-.146v-1.771a.152.152 0 0 0-.109-.148 5.679 5.679 0 0 0-1.734-.25c-1.926 0-2.946 1.093-2.946 3.16v.444h-1.002a.154.154 0 0 0-.153.154v1.816c0 .084.069.154.153.154h1.002v7.208c0 .086.07.154.153.154h2.086a.153.153 0 0 0 .153-.154v-7.208h1.948l2.985 7.208c-.338.757-.672.907-1.126.907-.368 0-.756-.11-1.151-.329a.165.165 0 0 0-.121-.011.152.152 0 0 0-.09.082l-.708 1.564a.154.154 0 0 0 .066.2c.738.402 1.404.574 2.228.574 1.54 0 2.393-.724 3.142-2.669l3.62-9.42a.151.151 0 0 0-.016-.144.149.149 0 0 0-.124-.067h-2.173a.153.153 0 0 0-.145.103l-2.225 6.402-2.437-6.406a.152.152 0 0 0-.142-.099h-3.565zm-4.638-.01h-2.087a.154.154 0 0 0-.154.155v9.168c0 .086.07.154.154.154h2.087a.154.154 0 0 0 .153-.154v-9.168a.153.153 0 0 0-.153-.154zm-1.032-4.175c-.827 0-1.497.674-1.497 1.507 0 .833.67 1.508 1.497 1.508.827 0 1.496-.675 1.496-1.508 0-.832-.67-1.507-1.496-1.507zm18.28 7.124a1.468 1.468 0 0 1-1.469-1.48c0-.81.652-1.486 1.477-1.486.825 0 1.468.667 1.468 1.478 0 .811-.651 1.488-1.476 1.488zm.008-2.82c-.753 0-1.322.603-1.322 1.34 0 .738.566 1.332 1.314 1.332.752 0 1.321-.602 1.321-1.34 0-.737-.565-1.331-1.313-1.331zm.325 1.484l.416.586h-.351l-.374-.538h-.32v.538h-.294v-1.553h.686c.36 0 .595.185.595.495.002.255-.145.41-.356.472h-.002zm-.248-.7h-.382v.49h.382c.19 0 .305-.093.305-.245 0-.16-.115-.245-.305-.245z" fill="#5D6D81" fill-rule="evenodd"/></svg>