<svg width="220" height="30" viewBox="0 0 220 30" xmlns="http://www.w3.org/2000/svg" xmlns:xlink="http://www.w3.org/1999/xlink"><title>Icons/Testimonials/Techcrunch 2</title><defs><path id="a" d="M0 29.24V.073h207V29.24z"/></defs><g fill="none" fill-rule="evenodd"><path d="M0 0h220v30H0z"/><path fill="#178D44" d="M84.809 11.472v12.914h-4.72V11.472h-4.77v-4.11h14.259v4.11h-4.77m9.998 3.113c-.998 0-1.557.681-1.703 1.945h3.65c-.22-1.288-.658-1.945-1.947-1.945zm5.79 4.67h-7.493c.146 1.41.973 2.042 2.165 2.042 1.12 0 2.044-.243 3.31-.9l1.677 2.797c-1.58.924-3.211 1.459-5.205 1.459-3.845 0-5.962-2.725-5.962-6.64 0-4.4 2.482-6.662 5.84-6.662 3.503 0 5.693 2.31 5.693 7.052 0 .365 0 .632-.025.852zm8.148 5.398c-3.746 0-5.985-2.383-5.985-6.687 0-3.916 1.996-6.615 6.083-6.615 2.409 0 3.796 1.118 4.915 2.918l-3.017 2.286c-.608-1.12-1.023-1.654-1.97-1.654-1.12 0-1.68 1.119-1.68 3.137 0 2.02.608 3.064 1.8 3.064.827 0 1.412-.462 2.215-1.653l2.773 2.164c-1.484 2.189-2.87 3.04-5.134 3.04m14.936-.267v-7.248c0-1.654-.559-2.09-1.46-2.09-.924 0-1.484.436-1.484 2.042v7.296h-4.38V8.408l4.38-1.75v5.811c.803-.608 1.703-1.118 3.212-1.118 2.798 0 4.137 1.872 4.137 5.228v7.807h-4.405"/><path d="M138.568 24.653c-5.061 0-7.762-3.745-7.762-8.78 0-5.47 3.212-8.778 7.786-8.778 4.185 0 5.84 1.8 7.008 5.01l-4.282 1.678c-.61-1.581-1.193-2.578-2.75-2.578-1.97 0-2.822 1.97-2.822 4.669 0 2.602.826 4.67 2.87 4.67 1.484 0 2.117-.803 3.041-2.409l3.991 2.116c-1.143 2.238-3.042 4.402-7.08 4.402m17.854-8.22c-.56-.608-1.192-1.07-2.043-1.07-1.072 0-1.73.51-1.73 2.067v6.956h-4.378V11.618h4.379v.924c.754-.73 1.606-1.191 2.727-1.191.923 0 1.556.218 2.067.535l-1.022 4.547m10.41 7.953v-.852c-.778.607-1.703 1.119-3.186 1.119-2.798 0-4.136-1.872-4.136-5.23v-7.805h4.403v7.248c0 1.652.56 2.09 1.46 2.09.901 0 1.46-.438 1.46-2.043v-7.295h4.404v12.768h-4.405m14.888 0v-7.248c0-1.654-.56-2.09-1.459-2.09-.925 0-1.485.436-1.485 2.042v7.296h-4.38V11.618h4.38v.851c.803-.608 1.703-1.118 3.211-1.118 2.798 0 4.137 1.872 4.137 5.228v7.807h-4.404m12.94.267c-3.747 0-5.985-2.383-5.985-6.687 0-3.916 1.995-6.615 6.083-6.615 2.408 0 3.796 1.118 4.914 2.918l-3.017 2.286c-.608-1.12-1.022-1.654-1.97-1.654-1.12 0-1.68 1.119-1.68 3.137 0 2.02.608 3.064 1.801 3.064.827 0 1.41-.462 2.213-1.653l2.774 2.164c-1.483 2.189-2.87 3.04-5.134 3.04" fill="#0A0B09"/><g transform="translate(7)"><mask id="b" fill="#fff"><use xlink:href="#a"/></mask><path d="M202.596 24.386v-7.248c0-1.654-.56-2.09-1.46-2.09-.926 0-1.484.436-1.484 2.042v7.296h-4.38V8.408l4.38-1.75v5.811c.802-.608 1.703-1.118 3.21-1.118 2.799 0 4.138 1.872 4.138 5.228v7.807h-4.404" fill="#0A0B09" mask="url(#b)"/><path fill="#178D44" mask="url(#b)" d="M0 .073v9.725h9.73v19.45h9.73V9.799h9.73V.073H0m38.92 19.45V9.798h-9.73v19.45h29.19v-9.725H38.92"/></g><path fill="#178D44" d="M45.92 9.798h19.46V.073H45.92z"/></g></svg>