<svg width="220" height="30" viewBox="0 0 220 30" xmlns="http://www.w3.org/2000/svg"><title>Icons/Testimonials/TNW 2</title><g fill="none" fill-rule="evenodd"><path d="M0 0h220v30H0z"/><path d="M143.004 22.868c-.378.426-.62.718-.881.99-1.765 1.83-3.337 3.889-5.685 5.033-1.445.704-2.958 1.094-4.562 1.094-5.023 0-10.047-.01-15.07.012-.613.003-.807-.171-.806-.812.018-9.459.014-18.918.006-28.377 0-.5.04-.81.672-.805 3.153.03 6.307.013 9.46.016.175 0 .349.035.595.061v.842c0 5.721.01 11.443-.013 17.164-.003.628.151.86.784.812.74-.055 1.488-.05 2.23-.005 1.463.087 2.608-.491 3.575-1.59a65.763 65.763 0 0 1 2.985-3.185c.934-.928 1.364-2.01 1.354-3.336-.022-3.299.013-6.598-.022-9.897-.007-.708.2-.893.877-.885 3.019.036 6.037.015 9.056.017.242 0 .483.022.804.037v.791c0 3.323-.05 6.646.015 9.967.054 2.788-.222 5.475-1.734 8.007.27.028.454.063.637.064 1.352.004 2.705-.042 4.055.014 1.46.06 2.613-.472 3.584-1.574a70.252 70.252 0 0 1 3.032-3.235c.914-.913 1.333-1.98 1.325-3.278-.02-3.3-.007-6.598-.005-9.897 0-.894.004-.897.901-.897h9.82v.802c0 3.922.02 7.844-.007 11.766-.022 3.18-1.07 5.938-3.3 8.21-1.866 1.9-3.679 3.854-5.52 5.779-2.21 2.31-4.891 3.445-8.058 3.418a465.099 465.099 0 0 0-9.19.009c-.666.007-.905-.157-.885-.878.05-1.775.018-3.552.014-5.329 0-.243-.022-.486-.043-.925M79 .006h.74c4.974 0 9.95.014 14.926-.006 2.988-.012 5.649.855 7.803 2.954 2.243 2.185 4.485 4.381 6.567 6.717 1.884 2.112 2.974 4.634 2.96 7.554-.017 4.017-.002 8.034.002 12.051 0 .379.05.727-.535.724-3.34-.02-6.68-.012-10.021-.015-.09 0-.179-.03-.381-.064v-.792c0-3.255-.005-6.51.002-9.766.002-1.382-.435-2.556-1.452-3.528-1.15-1.098-2.262-2.238-3.377-3.373-.806-.82-1.777-1.21-2.914-1.21-.899-.002-1.8.04-2.695-.016-.641-.04-.76.215-.758.796.019 5.633.014 11.267.009 16.9-.001 1.173.144 1.056-1.086 1.058-2.972.006-5.944.003-8.916.003H79V.006zM50.056 11.253c-.017-.326-.04-.552-.04-.779-.003-3.208.015-6.416-.016-9.623-.007-.67.189-.853.834-.851 7.8.021 15.602.014 23.403.014H75v11.201c-.255.013-.492.036-.73.036-1.882.003-3.766.028-5.648-.012-.622-.014-.793.18-.79.814.022 5.677.013 11.355.012 17.032 0 .912-.002.914-.868.914-2.982.002-5.963 0-8.945 0h-.83v-.947c0-5.655-.01-11.31.013-16.963.003-.663-.171-.864-.821-.851-2.08.04-4.163.015-6.337.015" fill="#FF2600"/></g></svg>