<svg width="100" height="100" viewBox="0 0 100 100" xmlns="http://www.w3.org/2000/svg"><title>testimonials-virgin</title><path d="M54.918 85.16c-.355-.675-.495-4.758-.399-11.62.082-5.82.074-10.58-.017-10.58-.32 0-6.488 4.915-10.766 8.578-2.378 2.035-6.223 5.716-8.546 8.18-4.491 4.764-5.629 5.249-7.08 3.017-.7-1.076-.587-1.31 1.975-4.075 3.38-3.649 10.31-9.607 17.974-15.454 5.881-4.486 8.252-7.004 5.763-6.119-.654.233-2.094.43-3.202.437-2.838.02-3.47-1.325-3.086-6.569.355-4.85.87-6.34 2.943-8.523 2.791-2.94 5.381-1.665 3.006 1.48-1.262 1.67-1.633 2.824-1.885 5.87-.265 3.184.236 4.216 1.667 3.437 1.181-.641 1.548-2.187 1.968-8.282.32-4.653 1.044-6.25 2.835-6.25.525 0 1.074.318 1.22.707.148.388.083 4.107-.143 8.263-.226 4.156-.28 7.557-.119 7.557.161 0 1.878-1.012 3.815-2.25 1.937-1.236 6.094-3.713 9.237-5.504 4.548-2.592 5.6-3.398 5.15-3.948-.381-.467-.451-2.198-.215-5.34.386-5.143-.025-5.774-2.216-3.405-.934 1.01-1.204 2.037-1.434 5.45-.206 3.046-.554 4.553-1.264 5.469-1.017 1.314-2.632 1.67-3.217.71-.185-.305-.171-3.132.031-6.283.324-5.036.512-5.874 1.556-6.933a4 4 0 0 1 2.867-1.206c1.094 0 1.89-.339 2.278-.97.328-.534 1.307-1.222 2.175-1.53 1.344-.475 1.729-.408 2.577.454.857.87.997 1.735.997 6.147 0 2.824.22 5.272.49 5.441.27.169 1.585-.25 2.924-.933 1.339-.682 2.869-1.17 3.4-1.086.944.151 1.807 1.076 1.823 1.953.018 1.032-3.148 3.25-5.906 4.137-1.642.528-5.159 2.136-7.815 3.574a1917.417 1917.417 0 0 1-6.102 3.29c-.7.373-3.56 2.137-6.356 3.92l-5.085 3.243-.072 9.29c-.039 5.11.174 10.728.473 12.483.427 2.51.402 3.366-.118 4.003-.96 1.174-3.434 1.035-4.1-.23zm-33.762-6.627c-.36-.593-2.097-10.631-3.35-19.37-1.319-9.185-1.598-9.684-3.01-5.375-.608 1.854-1.52 3.753-2.026 4.218-.969.89-2.345.678-2.762-.425-.199-.526 3.332-11.816 5.02-16.053.748-1.874 2.191-2.327 3.425-1.073.398.403.994 2.553 1.325 4.777.332 2.223.97 5.786 1.417 7.916.868 4.127.986 4.91 1.174 7.746l.119 1.808.4-2.066c.221-1.136.785-4.273 1.253-6.972 1.12-6.46 4.037-18.027 5.674-22.506a1666.07 1666.07 0 0 0 3.058-8.47c2.203-6.152 3.198-7.886 4.875-8.485.997-.356 1.662-.256 2.643.397 1.955 1.3 1.732 3.316-.695 6.3-2.2 2.702-5.37 10.028-7.142 16.497-.622 2.272-1.558 5.293-2.08 6.713-.994 2.7-1.843 6.248-2.23 9.32-.126.996-.336 1.989-.468 2.205-.132.216-.365 1.779-.52 3.472-.154 1.693-.404 3.66-.554 4.37-.15.71-.624 3.963-1.052 7.23-.946 7.23-1.318 8.263-2.976 8.263-.688 0-1.372-.197-1.518-.437zm9.69-13.38c-.481-.792.517-12.306 1.174-13.554 1.293-2.453 3.314-2.85 3.713-.73.361 1.92-1.001 13.094-1.701 13.95-.626.766-2.786.991-3.186.333zm7.518-4.311c-.578-.951.306-11.987 1.056-13.175.592-.938 4.757-2.782 6.284-2.782.278 0 .658.489.845 1.087.257.823-.119 1.564-1.546 3.048-1.79 1.863-1.903 2.182-2.22 6.332-.187 2.435-.64 4.745-1.025 5.215-.784.96-2.874 1.129-3.394.275zm23.72-10.998c-.312-.382-.463-1.48-.335-2.44.127-.96.382-3.58.566-5.821.277-3.37.55-4.296 1.577-5.34 1.035-1.05 1.373-1.151 2.023-.603.527.444.69 1.171.503 2.24-.153.87-.317 3.441-.365 5.714-.105 4.982-.194 5.26-1.989 6.202-1.18.62-1.506.628-1.98.048zm-28.303-5.183c-.872-.647-.875-.756-.06-2.02 1.222-1.893 2.63-2.576 3.393-1.643.8.98.254 2.574-1.22 3.555-1 .665-1.34.682-2.113.108zm30.294-13.966c0-1.454 2.087-3.14 3.301-2.667 1.855.722.06 3.946-2.197 3.946-.836 0-1.104-.31-1.104-1.28z" fill="#5D6D81" fill-rule="evenodd"/></svg>