<svg width="220" height="30" viewBox="0 0 220 30" xmlns="http://www.w3.org/2000/svg"><title>Icons/Testimonials/Yahoo 2</title><defs><linearGradient x1="14.975%" y1="98.428%" x2="81.496%" y2="10.025%" id="a"><stop stop-color="#210045" offset="0%"/><stop stop-color="#430085" offset="59.416%"/><stop stop-color="#5000B2" offset="100%"/></linearGradient><linearGradient x1="6.474%" y1="3.413%" x2="96.87%" y2="98.466%" id="b"><stop stop-color="#5500BD" offset="0%"/><stop stop-color="#5000AC" offset="100%"/></linearGradient><linearGradient x1="67.722%" y1="78.401%" x2="81.981%" y2="75.997%" id="c"><stop stop-color="#2A005A" offset="0%"/><stop stop-color="#210046" offset="100%"/></linearGradient><linearGradient x1="25.266%" y1="99.927%" x2="99.46%" y2="14.029%" id="d"><stop stop-color="#21004E" offset="0%"/><stop stop-color="#39007F" offset="100%"/></linearGradient><linearGradient x1="31.526%" y1="62.532%" x2="43.213%" y2="67.498%" id="e"><stop stop-color="#1B0041" offset="0%"/><stop stop-color="#21004F" offset="100%"/></linearGradient><linearGradient x1="86.973%" y1="-.098%" x2="12.076%" y2="97.304%" id="f"><stop stop-color="#5500BD" offset="0%"/><stop stop-color="#47008D" offset="100%"/></linearGradient><linearGradient x1="20.051%" y1=".784%" x2="99.734%" y2="96.158%" id="g"><stop stop-color="#5100B2" offset="0%"/><stop stop-color="#5500BD" offset="100%"/></linearGradient><linearGradient x1="72.605%" y1="81.925%" x2="84.608%" y2="76.552%" id="h"><stop stop-color="#27005D" stop-opacity=".98" offset="0%"/><stop stop-color="#2B005D" offset="31.767%"/><stop stop-color="#280055" offset="59.756%"/><stop stop-color="#24004D" offset="80.878%"/><stop stop-color="#230049" offset="100%"/></linearGradient><linearGradient x1="32.888%" y1="-.446%" x2="96.379%" y2="100.172%" id="i"><stop stop-color="#5500BD" offset="0%"/><stop stop-color="#5300B5" offset="100%"/></linearGradient><linearGradient x1="84.994%" y1=".48%" x2="84.994%" y2="100.04%" id="j"><stop stop-color="#210045" offset="0%"/><stop stop-color="#25004D" offset="25%"/><stop stop-color="#2B005C" offset="50%"/><stop stop-color="#340071" offset="74.854%"/><stop stop-color="#3E0088" offset="100%"/></linearGradient><linearGradient x1="1.858%" y1="99.053%" x2="99.91%" y2="3.563%" id="k"><stop stop-color="#4D00A1" offset="0%"/><stop stop-color="#5200B4" offset="100%"/></linearGradient><linearGradient x1=".226%" y1="66.146%" x2="99.644%" y2="66.146%" id="l"><stop stop-color="#6700E8" offset="0%"/><stop stop-color="#6700E8" offset="50.604%"/><stop stop-color="#6700E8" offset="100%"/></linearGradient><linearGradient x1="27.599%" y1="43.413%" x2="99.563%" y2="43.413%" id="m"><stop stop-color="#5A00C9" offset="0%"/><stop stop-color="#4F00A8" offset="100%"/></linearGradient><linearGradient x1=".929%" y1="1.754%" x2="100.982%" y2="1.754%" id="n"><stop stop-color="#390080" offset="0%"/><stop stop-color="#31006E" offset="50%"/><stop stop-color="#250056" offset="100%"/></linearGradient><linearGradient x1="-1.291%" y1="97.061%" x2="72.687%" y2="97.061%" id="o"><stop stop-color="#3F008B" offset="0%"/><stop stop-color="#220050" offset="100%"/></linearGradient><linearGradient x1=".061%" y1="56.314%" x2="99.97%" y2="56.314%" id="p"><stop stop-color="#6700E8" offset="0%"/><stop stop-color="#6700E8" offset="50%"/><stop stop-color="#6700E8" offset="100%"/></linearGradient><linearGradient x1="70.134%" y1="5.816%" x2="15.084%" y2="84.489%" id="q"><stop stop-color="#1C0044" offset="0%"/><stop stop-color="#2F0065" offset="10.005%"/><stop stop-color="#34006D" offset="20.479%"/><stop stop-color="#3B007A" offset="30%"/><stop stop-color="#3C007A" offset="40%"/><stop stop-color="#490096" offset="50%"/><stop stop-color="#5000AB" offset="60%"/><stop stop-color="#5400BA" offset="70.026%"/><stop stop-color="#5500BC" offset="80.312%"/><stop stop-color="#5700C2" offset="90%"/><stop stop-color="#5C00CE" offset="100%"/></linearGradient><linearGradient x1="15.582%" y1="88.954%" x2="77.808%" y2="7.079%" id="r"><stop stop-color="#1B0041" offset="0%"/><stop stop-color="#1B0041" offset="10.005%"/><stop stop-color="#1B0041" offset="20.479%"/><stop stop-color="#240052" offset="30%"/><stop stop-color="#32006A" offset="40%"/><stop stop-color="#3D007D" offset="50%"/><stop stop-color="#490098" offset="60%"/><stop stop-color="#4F00A8" offset="70.026%"/><stop stop-color="#5500BC" offset="80.312%"/><stop stop-color="#5700C2" offset="90%"/><stop stop-color="#6000DA" offset="100%"/></linearGradient><linearGradient x1="61.828%" y1="2.028%" x2="16.828%" y2="87.189%" id="s"><stop stop-color="#1E0046" offset="0%"/><stop stop-color="#2D0061" offset="10.005%"/><stop stop-color="#33006B" offset="20.479%"/><stop stop-color="#400082" offset="30%"/><stop stop-color="#490096" offset="40%"/><stop stop-color="#5000AC" offset="50%"/><stop stop-color="#5500BD" offset="60%"/><stop stop-color="#4F00A8" offset="70.026%"/><stop stop-color="#5500BC" offset="80.312%"/><stop stop-color="#5700C2" offset="90%"/><stop stop-color="#6000DA" offset="100%"/></linearGradient><linearGradient x1="20.312%" y1="92.318%" x2="71.385%" y2="3.948%" id="t"><stop stop-color="#1B0041" offset="0%"/><stop stop-color="#1B0041" offset="10.005%"/><stop stop-color="#1B0041" offset="20.479%"/><stop stop-color="#240052" offset="30%"/><stop stop-color="#32006A" offset="40%"/><stop stop-color="#3D007D" offset="50%"/><stop stop-color="#490098" offset="60%"/><stop stop-color="#4F00A8" offset="70.026%"/><stop stop-color="#5500BC" offset="80.312%"/><stop stop-color="#5700C2" offset="90%"/><stop stop-color="#6000DA" offset="100%"/></linearGradient><radialGradient cx="55.029%" cy="19.904%" fx="55.029%" fy="19.904%" r="85.465%" gradientTransform="matrix(.95929 0 0 1 .022 0)" id="u"><stop stop-color="#6000D8" offset="0%"/><stop stop-color="#5C00CD" offset="20.886%"/><stop stop-color="#5500BE" offset="37.415%"/><stop stop-color="#2D0062" offset="72.1%"/><stop stop-color="#210045" offset="100%"/></radialGradient><linearGradient x1="-.21%" y1="99.61%" x2="66.935%" y2="11.047%" id="v"><stop stop-color="#47008D" offset="0%"/><stop stop-color="#5100B3" offset="100%"/></linearGradient><linearGradient x1="-.581%" y1="69.345%" x2="99.58%" y2="69.345%" id="w"><stop stop-color="#5500BD" offset="0%"/><stop stop-color="#5200B2" offset="100%"/></linearGradient><radialGradient cx="53.297%" cy="32.389%" fx="53.297%" fy="32.389%" r="57.284%" gradientTransform="matrix(.87284 0 0 1 .068 0)" id="x"><stop stop-color="#6700E8" offset="0%"/><stop stop-color="#5C00CE" offset="39.936%"/><stop stop-color="#5600BF" stop-opacity=".045" offset="70.124%"/><stop stop-color="#220047" stop-opacity="0" offset="100%"/></radialGradient></defs><g fill="none" fill-rule="evenodd"><path d="M0 0h220v30H0z"/><path d="M127.289.408c.987.165 1.647.769 1.647 1.808 0 .344-.142.829-.237 1.238-.662 2.914-3.245 13.21-4.333 20.08l-1.001-1 3.185-21.136.739-.99z" fill="url(#a)" fill-rule="nonzero" transform="translate(46)"/><path d="M108.904 3.205a8.298 8.298 0 0 1-3.93 0l2.044 2.12 1.886-2.12zm-20.427 0a8.298 8.298 0 0 0 3.93 0l-2.044 2.12-1.886-2.12z" fill="#6700E8" fill-rule="nonzero"/><path d="M30.943 3.197c3.013 7.62 7.755 19.152 10.118 23.56l-3.498-1.068-8.655-21.626 2.035-.866z" fill="url(#b)" fill-rule="nonzero" transform="translate(46)"/><path d="M74.203 3.196c.962.323 1.76.342 2.74 0l-1.948 1.196-.792-1.196z" fill="#6700E8" fill-rule="nonzero"/><path d="M29.587 4.028l8.82 21.612c-.522.564-.755.86-1.263 1.125-2.556-6.579-5.301-13.159-7.627-19.652L28.37 5.168l1.218-1.14z" fill="url(#c)" fill-rule="nonzero" transform="translate(46)"/><path d="M22.001 26.756l-2.604-.921 9.169-21.491 1.021-.316V7.21c-1.425 4.11-5.043 13.127-7.586 19.546z" fill="url(#d)" fill-rule="nonzero" transform="translate(46)"/><path d="M65.842.064l.864 1.963 2.2-1.02.896-.943c-1.416.321-2.693.332-3.96 0z" fill="#6700E8" fill-rule="nonzero"/><path d="M13.633 17.182l-1.494.55-.943-1.649 9.353-14.92.669-.228c.923-.209 1.93-.432 2.585-.87-1.485 2.004-6.894 11.374-10.17 17.117z" fill="url(#e)" fill-rule="nonzero" transform="translate(46)"/><path d="M11.59 16.947l.392-.393L21.235.932 19.842.064c-1.117 2.08-5.237 8.806-7.86 13.114l-1.257 2.355.864 1.414z" fill="url(#f)" fill-rule="nonzero" transform="translate(46)"/><path d="M4.123.064c2.051 3.632 5.2 8.713 7.86 13.114v3.376l-.63.628L2.159.85 4.123.064z" fill="url(#g)" fill-rule="nonzero" transform="translate(46)"/><path d="M48.607 1.052l1.516-.988c-1.626.347-2.307.369-3.93 0l.63.707 1.784.281z" fill="#6700E8" fill-rule="nonzero"/><path d="M11.982 16.554l-.707 1.021-.943-.393C8.576 14.15 3.414 4.914.193.064c.653.473 1.535.732 2.554.898l9.235 15.592z" fill="url(#h)" fill-rule="nonzero" transform="translate(46)"/><path fill="url(#i)" fill-rule="nonzero" d="M13.869 29.825l-2.673-1.257.236-11.15.55-.864 1.65.628z" transform="translate(46)"/><path fill="url(#j)" fill-rule="nonzero" d="M11.982 28.96l-1.886.864.236-12.642 1.65-.628z" transform="translate(46)"/><path d="M18.113 26.762c3.279-6.678 6.925-15.633 10.09-23.567l1.384.834-8.951 21.878-1.816.62-.707.235z" fill="url(#k)" fill-rule="nonzero" transform="translate(46)"/><path d="M84.313 25.6l2.751 1.158c-1.055-.266-2.484-.368-3.92.007l.537-1.322.632.157z" fill="#200045" fill-rule="nonzero"/><path d="M23.458 19.037l1.934-.83c2.787.098 5.574.097 8.36 0l1.963.854-1.827.4h-9.044l-1.386-.424z" fill="url(#l)" fill-rule="nonzero" transform="translate(46)"/><path d="M70.746 19.852l-1.299-.815c4.082-.063 8.17-.058 12.265.024l-1.3.791a158.831 158.831 0 0 0-9.666 0z" fill="#200045" fill-rule="nonzero"/><path d="M46.406 26.762l-2.75-.942V4.697l.785-.392 1.965-1.1a224.544 224.544 0 0 0 0 23.557z" fill="url(#m)" fill-rule="nonzero" transform="translate(46)"/><path d="M44.441 25.663v.55l-1.964.55c.312-7.84.342-15.692 0-23.558l1.964 1.1v21.358z" fill="url(#n)" fill-rule="nonzero" transform="translate(46)"/><path d="M58.974 26.762l2.751-.942V4.697l-.786-.392-1.965-1.1a224.37 224.37 0 0 1 0 23.557z" fill="url(#o)" fill-rule="nonzero" transform="translate(46)"/><path d="M44.45 14.935l1.65-.736c4.39.11 8.784.103 13.182 0l1.657.736-2.05.49H46.088l-1.638-.49z" fill="url(#p)" fill-rule="nonzero" transform="translate(46)"/><path d="M76.775 3.196c-7.719 0-11.57 4.822-11.57 11.833 0 8.78 5.83 11.822 11.47 11.822 6.699 0 11.501-3.765 11.501-11.8 0-7.733-4.546-11.855-11.4-11.855zm-.23 1.12c.072-.002.145 0 .218 0 5.098 0 8.842 3.469 8.842 10.718 0 7.24-3.74 10.708-8.832 10.708-5.557 0-8.822-3.978-8.822-10.689 0-7.589 4.023-10.644 8.593-10.738z" fill="url(#q)" fill-rule="nonzero" transform="translate(46)"/><path d="M76.748 2.887c-8.336 0-12.71 5.281-12.71 12.127 0 7.493 4.775 12.063 12.698 12.063 8.566 0 12.75-5.15 12.75-11.984 0-7.62-4.997-12.206-12.738-12.206zm.025.78c6.582 0 10.946 3.957 10.946 11.382 0 7.714-4.612 11.331-11.045 11.331-5.415 0-11.012-2.92-11.012-11.351 0-6.732 3.7-11.361 11.11-11.361z" fill="url(#r)" fill-rule="nonzero" transform="translate(46)"/><path d="M105.58 1.992c-7.834 0-13.202 4.425-13.202 13.05 0 8.46 4.994 13.186 13.234 13.186 6.24 0 13.078-3.202 13.078-13.067 0-10.646-7.469-13.17-13.11-13.17zm-.042.942c6.234 0 10.826 3.784 10.826 12.13 0 9.071-5.555 12.013-10.816 12.013-5.622 0-10.743-3.296-10.743-12.193 0-9.222 5.676-11.95 10.733-11.95z" fill="url(#s)" fill-rule="nonzero" transform="translate(46)"/><path d="M105.528 1.469c-8.302 0-14.648 4.71-14.648 13.467 0 7.214 4.221 13.564 14.717 13.564 8.885 0 14.687-4.88 14.687-13.437 0-8.068-5.412-13.594-14.756-13.594zm.052.878c5.488 0 12.754 2.458 12.754 12.814 0 9.596-6.654 12.711-12.725 12.711-8.016 0-12.872-4.598-12.872-12.828 0-8.39 5.222-12.697 12.843-12.697z" fill="url(#t)" fill-rule="nonzero" transform="translate(46)"/><path d="M120.925 28.11c0-1.013.617-1.955 1.853-1.955 1.183 0 2.068.707 2.068 1.836 0 1.407-.932 1.925-1.785 1.925-1.181 0-2.136-.612-2.136-1.806z" fill="url(#u)" fill-rule="nonzero" transform="translate(46)"/><path d="M122.9 23.31c.957-6.767 1.54-13.879 2.1-20.97 0-1.414.935-1.966 1.878-1.966.166 0 .41.034.41.034l-.257 1.695-3.361 21.019-.77.188z" fill="url(#v)" fill-rule="nonzero" transform="translate(46)"/><path d="M56.096 29.825l1.89-1.384 1.883 1.384s-1.044-.19-1.883-.19c-.757 0-1.89.19-1.89.19zm8.016-3.06l2.636-1.139c.403.482.76.89 1.254 1.132-.949-.256-2.385-.372-3.89.004v.003zm24.365-.003a8.29 8.29 0 0 1 3.924 0l-1.96-1.1-1.964 1.1zM92.1 15.806l-1.654-.871a730.22 730.22 0 0 0 16.493 0l-1.653.866c-4.395-.06-8.79-.056-13.185.005z" fill="#200045" fill-rule="nonzero"/><path d="M60.94 25.663v.55l1.964.55c-.312-7.84-.342-15.692 0-23.558l-1.965 1.1v21.358z" fill="url(#w)" fill-rule="nonzero" transform="translate(46)"/><path d="M108.904 26.762a8.29 8.29 0 0 0-3.925 0l1.96-1.1 1.965 1.1zm60.862-4.246l-.87.794c.583-.103 1.034.05 1.472.226l-.602-1.02z" fill="#200045" fill-rule="nonzero"/><path d="M128.888 2.088c0 .923-.857 1.671-1.915 1.671s-1.915-.748-1.915-1.671c0-.924.857-1.672 1.915-1.672s1.915.748 1.915 1.672z" fill="url(#x)" transform="translate(46)"/></g></svg>